<svg xmlns="http://www.w3.org/2000/svg" viewBox="0 0 500 500" width="100%" height="100%">
  <rect width="500" height="500" rx="100" fill="#ffffff"/>
  <!-- Dark Forest Green Top Half (#12542a) -->
  <path
    d="M 365 72 
       L 215 72 
       C 140 72 90 118 90 195 
       C 90 235 118 265 165 285 
       L 280 332 
       V 212 
       L 195 178 
       C 178 170 170 160 170 148 
       C 170 132 185 120 215 120 
       L 305 120 
       Z"
    fill="#12542a"
  />

  <!-- Bright Lime Green Bottom Half (#78be12) -->
  <path
    d="M 280 212 
       V 332 
       L 298 339 
       C 335 354 390 354 390 410 
       C 390 452 355 478 285 478 
       L 80 478 
       L 138 398 
       L 285 398 
       C 305 398 318 388 318 376 
       C 318 360 300 350 270 338 
       L 280 212 
       Z"
    fill="#78be12"
  />
</svg>
